<svg width="30" height="32" viewBox="0 0 30 32" fill="none" xmlns="http://www.w3.org/2000/svg">
<path d="M13.9786 12.4333L15.0778 13.454V13.454L13.9786 12.4333ZM6.67859 18.0904C6.11489 18.6975 6.15004 19.6466 6.7571 20.2103C7.36417 20.774 8.31327 20.7389 8.87697 20.1318L6.67859 18.0904ZM29.0992 7.68734C29.6629 7.08028 29.6277 6.13118 29.0207 5.56748C28.4136 5.00377 27.4645 5.03892 26.9008 5.64599L29.0992 7.68734ZM20.3547 14.9001L21.4539 15.9207L20.3547 14.9001ZM18.312 14.9001L19.4111 13.8794H19.4111L18.312 14.9001ZM16.0214 12.4333L17.1206 11.4126V11.4126L16.0214 12.4333ZM28 31.5C28.8284 31.5 29.5 30.8284 29.5 30C29.5 29.1716 28.8284 28.5 28 28.5V31.5ZM3.5 2C3.5 1.17157 2.82843 0.5 2 0.5C1.17157 0.5 0.5 1.17157 0.5 2H3.5ZM3.57736 29.6609L4.29895 28.3459L4.29894 28.3459L3.57736 29.6609ZM2.31487 28.3013L0.958973 28.9428L0.958973 28.9428L2.31487 28.3013ZM12.8794 11.4126L6.67859 18.0904L8.87697 20.1318L15.0778 13.454L12.8794 11.4126ZM26.9008 5.64599L19.2555 13.8794L21.4539 15.9207L29.0992 7.68734L26.9008 5.64599ZM19.4111 13.8794L17.1206 11.4126L14.9222 13.454L17.2128 15.9207L19.4111 13.8794ZM19.2555 13.8794C19.2533 13.8818 19.2597 13.8745 19.2766 13.8671C19.2926 13.8601 19.3122 13.8557 19.3333 13.8557C19.3545 13.8557 19.3741 13.8601 19.3901 13.8671C19.407 13.8745 19.4134 13.8818 19.4111 13.8794L17.2128 15.9207C18.3703 17.1673 20.2964 17.1673 21.4539 15.9207L19.2555 13.8794ZM15.0778 13.454C15.08 13.4516 15.0736 13.4588 15.0568 13.4662C15.0407 13.4732 15.0211 13.4777 15 13.4777C14.9789 13.4777 14.9593 13.4732 14.9432 13.4662C14.9264 13.4588 14.92 13.4516 14.9222 13.454L17.1206 11.4126C15.963 10.166 14.037 10.166 12.8794 11.4126L15.0778 13.454ZM28 28.5H6.62222V31.5H28V28.5ZM3.5 25.0222V2H0.5V25.0222H3.5ZM6.62222 28.5C5.78662 28.5 5.25704 28.4986 4.85628 28.4634C4.4766 28.43 4.35179 28.3749 4.29895 28.3459L2.85578 30.9759C3.4209 31.286 4.00956 31.4005 4.59333 31.4518C5.15603 31.5014 5.83989 31.5 6.62222 31.5V28.5ZM0.5 25.0222C0.5 25.8704 0.498993 26.5904 0.543657 27.1791C0.589422 27.7823 0.689602 28.3735 0.958973 28.9428L3.67077 27.6598C3.62527 27.5636 3.56801 27.3865 3.53506 26.9521C3.50101 26.5033 3.5 25.9164 3.5 25.0222H0.5ZM4.29894 28.3459C4.04534 28.2067 3.81895 27.973 3.67077 27.6598L0.958973 28.9428C1.36472 29.8004 2.02222 30.5186 2.85578 30.9759L4.29894 28.3459Z" fill="#323232"/>
</svg>
