<svg width="26" height="26" viewBox="0 0 26 26" fill="none" xmlns="http://www.w3.org/2000/svg">
<path d="M17.2036 4.20012C17.7916 3.61298 18.6034 3.24991 19.5 3.24991C21.2949 3.24991 22.75 4.70499 22.75 6.49992C22.75 7.39653 22.3869 8.20833 21.7998 8.79633C20.839 6.78861 19.2113 5.16093 17.2036 4.20012Z" fill="#F12424"/>
<path d="M10.1677 3.66765C10.5816 2.30202 11.2871 1.06313 12.2117 0.0234071C5.39905 0.430903 0 6.08492 0 12.9999C0 20.1797 5.8203 26 13 26C19.915 26 25.569 20.6009 25.9765 13.7883C24.9368 14.7128 23.6979 15.4183 22.3323 15.8322C21.1188 19.8357 17.3997 22.75 13 22.75C7.61522 22.75 3.25 18.3847 3.25 12.9999C3.25 8.60019 6.16424 4.88109 10.1677 3.66765Z" fill="#F12424"/>
<path d="M26 6.50003C26 10.0899 23.0899 13.0001 19.5 13.0001C15.9101 13.0001 13 10.0899 13 6.50003C13 2.91016 15.9101 0 19.5 0C23.0899 0 26 2.91016 26 6.50003Z" fill="#F12424"/>
</svg>
