<svg width="35" height="36" viewBox="0 0 35 36" fill="none" xmlns="http://www.w3.org/2000/svg">
<path d="M21.0329 0.164702C21.6865 0.458436 22.1053 1.09707 22.1053 1.80002V34.2C22.1053 34.9029 21.6865 35.5416 21.0329 35.8353C20.3793 36.129 19.6105 36.0241 19.0643 35.5666L6.68698 25.2H1.84211C0.824739 25.2 0 24.3941 0 23.4V12.6C0 11.6059 0.824739 10.8 1.84211 10.8H6.68698L19.0643 0.433363C19.6105 -0.024112 20.3793 -0.129031 21.0329 0.164702ZM18.4211 5.71361L8.56725 13.9667C8.23338 14.2463 7.80815 14.4 7.36842 14.4H3.68421V21.6H7.36842C7.80815 21.6 8.23338 21.7537 8.56725 22.0333L18.4211 30.2864V5.71361ZM28.1711 5.92722C28.8905 5.22428 30.0569 5.22428 30.7763 5.92722L30.7776 5.92851L30.779 5.92988L30.782 5.93288L30.7891 5.93992L30.8073 5.95813C30.8212 5.97211 30.8385 5.98977 30.8589 6.01111C30.8999 6.05379 30.9536 6.11123 31.0183 6.18346C31.1476 6.32786 31.3209 6.53168 31.523 6.79502C31.9271 7.32145 32.4481 8.08792 32.9634 9.09503C33.9971 11.1151 35 14.089 35 18C35 21.911 33.9971 24.8849 32.9634 26.905C32.4481 27.9121 31.9271 28.6786 31.523 29.205C31.3209 29.4683 31.1476 29.6721 31.0183 29.8165C30.9536 29.8888 30.8999 29.9462 30.8589 29.9889C30.8385 30.0102 30.8212 30.0279 30.8073 30.0419L30.7891 30.0601L30.782 30.0671L30.779 30.0701L30.7776 30.0715L30.7763 30.0728C30.0569 30.7757 28.8905 30.7757 28.1711 30.0728C27.4548 29.3728 27.4517 28.2399 28.1619 27.5363L28.1712 27.5267C28.1842 27.5131 28.2096 27.4862 28.2457 27.4459C28.3178 27.3653 28.4324 27.2316 28.5757 27.045C28.8624 26.6714 29.2624 26.0879 29.6682 25.295C30.4766 23.7151 31.3158 21.289 31.3158 18C31.3158 14.711 30.4766 12.2849 29.6682 10.705C29.2624 9.91211 28.8624 9.32858 28.5757 8.95501C28.4324 8.76835 28.3178 8.63466 28.2457 8.55407C28.2096 8.5138 28.1842 8.48687 28.1712 8.47329L28.1619 8.46373C27.4517 7.76009 27.4548 6.62715 28.1711 5.92722ZM24.4869 11.3272C25.2063 10.6243 26.3727 10.6243 27.092 11.3272L27.0947 11.3298L27.0975 11.3325L27.1036 11.3386L27.1178 11.3529L27.154 11.39C27.1815 11.4186 27.2155 11.455 27.255 11.4991C27.3339 11.5872 27.4352 11.7067 27.551 11.8575C27.7823 12.1589 28.0731 12.5879 28.3582 13.145C28.9313 14.2651 29.4737 15.889 29.4737 18C29.4737 20.111 28.9313 21.7349 28.3582 22.855C28.0731 23.4121 27.7823 23.8411 27.551 24.1425C27.4352 24.2933 27.3339 24.4128 27.255 24.5009C27.2155 24.545 27.1815 24.5814 27.154 24.61L27.1178 24.6471L27.1036 24.6614L27.0975 24.6674L27.0947 24.6702L27.0933 24.6715C26.3739 25.3745 25.2063 25.3757 24.4869 24.6728C23.7737 23.9759 23.7676 22.8497 24.4685 22.1454C24.4711 22.1427 24.4757 22.1376 24.4823 22.1303C24.5041 22.106 24.5467 22.0567 24.6036 21.9825C24.7177 21.8339 24.8874 21.5879 25.0629 21.245C25.4108 20.5651 25.7895 19.489 25.7895 18C25.7895 16.511 25.4108 15.4349 25.0629 14.755C24.8874 14.4121 24.7177 14.1661 24.6036 14.0175C24.5467 13.9433 24.5041 13.894 24.4823 13.8697C24.4757 13.8624 24.4711 13.8573 24.4685 13.8546C23.7676 13.1503 23.7737 12.0241 24.4869 11.3272Z" fill="#009329"/>
</svg>
