<svg width="35" height="35" viewBox="0 0 35 35" fill="none" xmlns="http://www.w3.org/2000/svg">
<path d="M17.5 3.5C9.76801 3.5 3.5 9.76801 3.5 17.5C3.5 25.232 9.76801 31.5 17.5 31.5C25.232 31.5 31.5 25.232 31.5 17.5C31.5 9.76801 25.232 3.5 17.5 3.5ZM0 17.5C0 7.83502 7.83502 0 17.5 0C27.165 0 35 7.83502 35 17.5C35 27.165 27.165 35 17.5 35C7.83502 35 0 27.165 0 17.5ZM10.1376 10.1376C10.821 9.45415 11.929 9.45415 12.6124 10.1376L17.5 15.0251L22.3876 10.1376C23.071 9.45415 24.179 9.45415 24.8624 10.1376C25.5459 10.821 25.5459 11.929 24.8624 12.6124L19.9749 17.5L24.8624 22.3876C25.5459 23.071 25.5459 24.179 24.8624 24.8624C24.179 25.5459 23.071 25.5459 22.3876 24.8624L17.5 19.9749L12.6124 24.8624C11.929 25.5459 10.821 25.5459 10.1376 24.8624C9.45415 24.179 9.45415 23.071 10.1376 22.3876L15.0251 17.5L10.1376 12.6124C9.45415 11.929 9.45415 10.821 10.1376 10.1376Z" fill="#009329"/>
</svg>
