<svg width="47" height="52" viewBox="0 0 47 52" fill="none" xmlns="http://www.w3.org/2000/svg">
<path d="M23.5 5.2C17.7317 5.2 13.0556 9.85624 13.0556 15.6C13.0556 21.3438 17.7317 26 23.5 26C29.2683 26 33.9444 21.3438 33.9444 15.6C33.9444 9.85624 29.2683 5.2 23.5 5.2ZM7.83333 15.6C7.83333 6.98436 14.8475 0 23.5 0C32.1525 0 39.1667 6.98436 39.1667 15.6C39.1667 24.2156 32.1525 31.2 23.5 31.2C14.8475 31.2 7.83333 24.2156 7.83333 15.6ZM13.0556 41.6C8.72932 41.6 5.22222 45.0922 5.22222 49.4C5.22222 50.8359 4.05319 52 2.61111 52C1.16903 52 0 50.8359 0 49.4C0 42.2203 5.84518 36.4 13.0556 36.4H33.9444C41.1548 36.4 47 42.2203 47 49.4C47 50.8359 45.831 52 44.3889 52C42.9468 52 41.7778 50.8359 41.7778 49.4C41.7778 45.0922 38.2707 41.6 33.9444 41.6H13.0556Z" fill="#69C55B"/>
</svg>
