<svg width="20" height="20" viewBox="0 0 20 20" fill="none" xmlns="http://www.w3.org/2000/svg">
<path d="M9.51454 0.125843C9.81656 -0.0419476 10.1838 -0.0419476 10.4858 0.125843L19.4858 5.12584C19.8033 5.30221 20.0002 5.63683 20.0002 6C20.0002 6.36317 19.8033 6.69779 19.4858 6.87416L10.4858 11.8742C10.1838 12.0419 9.81656 12.0419 9.51454 11.8742L0.514539 6.87416C0.197074 6.69779 0.000182137 6.36317 0.000182137 6C0.000182137 5.63683 0.197074 5.30221 0.514539 5.12584L9.51454 0.125843ZM3.05931 6L10.0002 9.85604L16.9411 6L10.0002 2.14396L3.05931 6Z" fill="white"/>
<path d="M0.126025 9.51436C0.394238 9.03157 1.00304 8.85763 1.48583 9.12584L10.0002 13.856L18.5145 9.12584C18.9973 8.85763 19.6061 9.03157 19.8743 9.51436C20.1426 9.99714 19.9686 10.6059 19.4858 10.8742L10.4858 15.8742C10.1838 16.0419 9.81656 16.0419 9.51454 15.8742L0.514539 10.8742C0.0317555 10.6059 -0.142188 9.99714 0.126025 9.51436Z" fill="white"/>
<path d="M0.126025 13.5144C0.394238 13.0316 1.00304 12.8576 1.48583 13.1258L10.0002 17.856L18.5145 13.1258C18.9973 12.8576 19.6061 13.0316 19.8743 13.5144C20.1426 13.9971 19.9686 14.6059 19.4858 14.8742L10.4858 19.8742C10.1838 20.0419 9.81656 20.0419 9.51454 19.8742L0.514539 14.8742C0.0317556 14.6059 -0.142188 13.9971 0.126025 13.5144Z" fill="white"/>
</svg>
