<svg width="35" height="35" viewBox="0 0 35 35" fill="none" xmlns="http://www.w3.org/2000/svg">
<path d="M17.5 3.5C9.76801 3.5 3.5 9.76801 3.5 17.5C3.5 25.232 9.76801 31.5 17.5 31.5C25.232 31.5 31.5 25.232 31.5 17.5C31.5 9.76801 25.232 3.5 17.5 3.5ZM0 17.5C0 7.83502 7.83502 0 17.5 0C27.165 0 35 7.83502 35 17.5C35 27.165 27.165 35 17.5 35C7.83502 35 0 27.165 0 17.5ZM17.5 7C18.4665 7 19.25 7.7835 19.25 8.75V16.7751L23.9874 21.5126C24.6709 22.196 24.6709 23.304 23.9874 23.9874C23.304 24.6709 22.196 24.6709 21.5126 23.9874L16.2626 18.7374C15.9344 18.4092 15.75 17.9641 15.75 17.5V8.75C15.75 7.7835 16.5335 7 17.5 7Z" fill="#009329"/>
</svg>
