<svg width="29" height="26" viewBox="0 0 29 26" fill="none" xmlns="http://www.w3.org/2000/svg">
<path d="M25.2046 3.73086C24.2154 2.64486 22.4292 2.57794 21.2385 3.77632L9.58094 15.5089C9.27947 15.8123 9.27947 16.1988 9.58094 16.5022C9.88242 16.8057 10.2665 16.8057 10.5679 16.5022L20.2106 6.79751C20.7727 6.23185 21.6839 6.23185 22.246 6.79751C22.808 7.36317 22.808 8.28029 22.246 8.84595L12.6033 18.5507C11.1777 19.9854 8.97117 19.9854 7.5456 18.5507C6.12003 17.1159 6.12003 14.8952 7.5456 13.4605L19.2032 1.72788C21.4592 -0.542642 25.1253 -0.616523 27.3051 1.75005C29.5391 4.02184 29.6049 7.69363 27.2627 9.88048L13.6107 23.6203C10.4581 26.7932 5.51708 26.7932 2.36446 23.6203C-0.788154 20.4474 -0.788154 15.4746 2.36446 12.3017L14.022 0.569102C14.5841 0.00344068 15.4953 0.00344068 16.0574 0.569102C16.6194 1.13476 16.6194 2.05188 16.0574 2.61754L4.39981 14.3501C2.37128 16.3917 2.37128 19.5303 4.39981 21.5719C6.42833 23.6135 9.54685 23.6135 11.5754 21.5719L25.2478 7.81144C25.2626 7.7966 25.2776 7.78209 25.293 7.76792C26.3721 6.77241 26.4385 4.9747 25.2478 3.77632C25.2331 3.76148 25.2187 3.74633 25.2046 3.73086Z" fill="#0D0D0D"/>
</svg>
