<svg width="36" height="36" viewBox="0 0 36 36" fill="none" xmlns="http://www.w3.org/2000/svg">
<path d="M32 13.2632C32 14.3096 32.8954 15.1579 34 15.1579C35.1046 15.1579 36 14.3096 36 13.2632V3.78947C36 1.69661 34.2091 0 32 0H4C1.79086 0 0 1.69661 0 3.78947L0 13.2632C0 14.3096 0.895428 15.1579 2 15.1579C3.10457 15.1579 4 14.3096 4 13.2632L4 3.78947H32V13.2632Z" fill="#009329"/>
<path d="M19.4011 10.0163C19.2124 9.84077 18.9961 9.70782 18.7656 9.61745C18.5315 9.5255 18.275 9.47444 18.006 9.47369L18 9.47368L17.994 9.47369C17.4842 9.47513 16.9748 9.66011 16.5858 10.0286L8.58579 17.6076C7.80474 18.3475 7.80474 19.5472 8.58579 20.2872C9.36683 21.0271 10.6332 21.0271 11.4142 20.2872L16 15.9427L16 34.1053C16 35.1517 16.8954 36 18 36C19.1046 36 20 35.1517 20 34.1053V15.9427L24.5858 20.2872C25.3668 21.0271 26.6332 21.0271 27.4142 20.2872C28.1953 19.5472 28.1953 18.3475 27.4142 17.6076L19.4156 10.03L19.4011 10.0163Z" fill="#009329"/>
</svg>
