<svg width="16" height="16" viewBox="0 0 16 16" fill="none" xmlns="http://www.w3.org/2000/svg">
<path d="M10.0215 0.00024414H15C15.5523 0.00024414 16 0.447959 16 1.00024C16 1.55253 15.5523 2.00024 15 2.00024H10.7543L7.32573 14.0002H11C11.5523 14.0002 12 14.448 12 15.0002C12 15.5525 11.5523 16.0002 11 16.0002H6.02369C6.00827 16.0006 5.99281 16.0006 5.9773 16.0002H1C0.447715 16.0002 0 15.5525 0 15.0002C0 14.448 0.447715 14.0002 1 14.0002H5.2457L8.67427 2.00024H5C4.44772 2.00024 4 1.55253 4 1.00024C4 0.447959 4.44772 0.00024414 5 0.00024414H9.97749C9.99213 -8.05274e-05 10.0068 -8.22317e-05 10.0215 0.00024414Z" fill="#0D0D0D"/>
</svg>
