<svg width="35" height="35" viewBox="0 0 35 35" fill="none" xmlns="http://www.w3.org/2000/svg">
<path d="M24.3056 13.6111C25.9164 13.6111 27.2222 12.3053 27.2222 10.6944C27.2222 9.08361 25.9164 7.77778 24.3056 7.77778C22.6947 7.77778 21.3889 9.08361 21.3889 10.6944C21.3889 12.3053 22.6947 13.6111 24.3056 13.6111Z" fill="#009329"/>
<path d="M0 3.88889C0 1.74111 1.74111 0 3.88889 0H31.1111C33.2589 0 35 1.74111 35 3.88889V31.1111C35 33.2589 33.2589 35 31.1111 35H3.88889C1.74111 35 0 33.2589 0 31.1111V3.88889ZM31.1111 3.88889H3.88889V19.2877L10.4521 14.0372C11.1622 13.4691 12.1713 13.4691 12.8814 14.0372L21.2447 20.7278L23.9029 18.0695C24.6623 17.3102 25.8934 17.3102 26.6528 18.0695L31.1111 22.5278V3.88889ZM3.88889 31.1111H31.1111V28.0276L25.2778 22.1943L22.7639 24.7083C22.0633 25.4089 20.948 25.4706 20.1743 24.8517L11.6667 18.0457L3.88889 24.2679V31.1111Z" fill="#009329"/>
</svg>
