<svg width="31" height="31" viewBox="0 0 31 31" fill="none" xmlns="http://www.w3.org/2000/svg">
<path d="M31 15.5C31 24.0604 24.0604 31 15.5 31C6.93959 31 0 24.0604 0 15.5C0 6.93959 6.93959 0 15.5 0C24.0604 0 31 6.93959 31 15.5Z" fill="#7BDE67"/>
<path d="M15.2071 5.29289C15.5976 5.68342 15.5976 6.31658 15.2071 6.70711L13.9142 8H15.5C20.1523 8 24 11.8477 24 16.5C24 21.1523 20.1523 25 15.5 25C10.8477 25 7 21.1523 7 16.5C7 15.9477 7.44772 15.5 8 15.5C8.55229 15.5 9 15.9477 9 16.5C9 20.0477 11.9523 23 15.5 23C19.0477 23 22 20.0477 22 16.5C22 12.9523 19.0477 10 15.5 10H13.9142L15.2071 11.2929C15.5976 11.6834 15.5976 12.3166 15.2071 12.7071C14.8166 13.0976 14.1834 13.0976 13.7929 12.7071L10.7929 9.70711C10.4024 9.31658 10.4024 8.68342 10.7929 8.29289L13.7929 5.29289C14.1834 4.90237 14.8166 4.90237 15.2071 5.29289Z" fill="white"/>
</svg>
