<svg width="32" height="40" viewBox="0 0 32 40" fill="none" xmlns="http://www.w3.org/2000/svg">
<path d="M0 4C0 1.79086 1.79086 0 4 0H20C20.5304 0 21.0391 0.210714 21.4142 0.585786L31.4142 10.5858C31.7893 10.9609 32 11.4696 32 12V36C32 38.2091 30.2091 40 28 40H4C1.79086 40 0 38.2091 0 36V4ZM27.1716 12L20 4.82843V12H27.1716ZM16 4L4 4V36H28V16H18C16.8954 16 16 15.1046 16 14V4ZM8 22C8 20.8954 8.89543 20 10 20H22C23.1046 20 24 20.8954 24 22C24 23.1046 23.1046 24 22 24H10C8.89543 24 8 23.1046 8 22ZM8 30C8 28.8954 8.89543 28 10 28H22C23.1046 28 24 28.8954 24 30C24 31.1046 23.1046 32 22 32H10C8.89543 32 8 31.1046 8 30Z" fill="#009329"/>
</svg>
