<svg width="70" height="52" viewBox="0 0 70 52" fill="none" xmlns="http://www.w3.org/2000/svg">
<path d="M49.2079 3.48993C49.2079 1.5625 50.7594 0 52.6733 0C54.8798 0 57.0481 0.446515 59.1583 1.29659C61.4548 2.22172 63.2225 3.59465 64.8266 5.2101C66.4307 6.82555 67.7939 8.60581 68.7125 10.9186C69.5566 13.0438 70 15.2275 70 17.4497C70 19.6718 69.5566 21.8555 68.7125 23.9807C67.8054 26.2645 66.4648 28.0291 64.8868 29.6284L61.475 33.408C61.4381 33.4489 61.4001 33.489 61.3613 33.5282L50.2721 44.6959C48.6681 46.3114 46.9004 47.6843 44.6038 48.6095C42.4936 49.4595 40.3253 49.906 38.1188 49.906C35.9123 49.906 33.744 49.4595 31.6338 48.6095C29.3373 47.6843 27.5695 46.3114 25.9655 44.6959C24.3614 43.0805 22.9981 41.3002 22.0795 38.9874C21.2192 36.8213 20.7921 34.6357 20.7921 32.1074C20.7921 29.8852 21.2354 27.7015 22.0795 25.5764C22.9981 23.2635 24.3614 21.4833 25.9655 19.8678L29.7774 16.0289C31.1307 14.666 33.3248 14.666 34.6781 16.0289C36.0314 17.3918 36.0314 19.6015 34.6781 20.9644L30.8662 24.8033C29.698 25.9798 28.982 26.9915 28.5145 28.1686C27.9725 29.5334 27.7228 30.8396 27.7228 32.1074C27.7228 33.767 27.9887 35.0713 28.5145 36.3951C28.982 37.5723 29.698 38.5839 30.8662 39.7604C32.0344 40.9369 33.039 41.658 34.2078 42.1288C35.5629 42.6747 36.86 42.9262 38.1188 42.9262C39.3776 42.9262 40.6747 42.6747 42.0298 42.1288C43.1986 41.658 44.2032 40.9369 45.3714 39.7604L56.4022 28.6514L59.8121 24.8739C59.8491 24.8329 59.887 24.7929 59.9259 24.7537C61.0941 23.5772 61.81 22.5655 62.2776 21.3884C62.8196 20.0237 63.0693 18.7174 63.0693 17.4497C63.0693 16.1819 62.8196 14.8756 62.2776 13.5109C61.81 12.3338 61.0941 11.3221 59.9259 10.1456C58.7577 8.96911 57.7531 8.24808 56.5843 7.77723C55.2292 7.23134 53.9321 6.97987 52.6733 6.97987C50.7594 6.97987 49.2079 5.41737 49.2079 3.48993ZM32.2277 8.72483C30.9689 8.72483 29.6718 8.9763 28.3167 9.5222C27.1479 9.99304 26.1433 10.7141 24.9751 11.8906L13.5978 23.3486L10.1879 27.1261C10.1509 27.1671 10.113 27.2071 10.0741 27.2463C8.90592 28.4228 8.18997 29.4345 7.72244 30.6116C7.18039 31.9763 6.93069 33.2826 6.93069 34.5503C6.93069 35.8181 7.18039 37.1244 7.72244 38.4891C8.18997 39.6662 8.90592 40.6779 10.0741 41.8544C11.2423 43.0309 12.2469 43.7519 13.4157 44.2228C14.7708 44.7687 16.0679 45.0201 17.3267 45.0201C19.2406 45.0201 20.7921 46.5826 20.7921 48.5101C20.7921 50.4375 19.2406 52 17.3267 52C15.1202 52 12.9519 51.5535 10.8417 50.7034C8.54518 49.7783 6.77746 48.4053 5.17339 46.7899C3.56932 45.1745 2.20607 43.3942 1.28746 41.0814C0.443369 38.9562 0 36.7725 0 34.5503C0 32.3282 0.443369 30.1445 1.28746 28.0193C2.19455 25.7355 3.5352 23.971 5.11316 22.3716L8.52496 18.592C8.56194 18.5511 8.59987 18.511 8.63874 18.4718L20.0744 6.95506C21.6784 5.33961 23.4462 3.96669 25.7427 3.04156C27.8529 2.19148 30.0212 1.74497 32.2277 1.74497C34.4342 1.74497 36.6025 2.19148 38.7127 3.04156C41.0093 3.96669 42.777 5.33961 44.3811 6.95506C45.9851 8.57051 47.3484 10.3508 48.267 12.6636C49.1111 14.7888 49.5545 16.9725 49.5545 19.1946C49.5545 21.4168 49.1111 23.6005 48.267 25.7257C47.3589 28.012 46.0163 29.7779 44.4361 31.3786L40.6733 35.5126C39.3801 36.9334 37.188 37.0294 35.7772 35.727C34.3664 34.4246 34.2711 32.2169 35.5643 30.7961L39.3762 26.6082C39.4101 26.5709 39.4448 26.5344 39.4803 26.4987C40.6485 25.3222 41.3645 24.3105 41.832 23.1334C42.3741 21.7687 42.6238 20.4624 42.6238 19.1946C42.6238 17.9269 42.3741 16.6206 41.832 15.2559C41.3645 14.0788 40.6485 13.0671 39.4803 11.8906C38.3121 10.7141 37.3076 9.99304 36.1387 9.5222C34.7836 8.9763 33.4865 8.72483 32.2277 8.72483Z" fill="#69C55B"/>
</svg>
