<svg width="71" height="71" viewBox="0 0 71 71" fill="none" xmlns="http://www.w3.org/2000/svg">
<path d="M63.1111 26.1579C63.1111 28.2217 64.8771 29.8947 67.0556 29.8947C69.234 29.8947 71 28.2217 71 26.1579V7.47368C71 3.34608 67.468 0 63.1111 0H7.88889C3.53198 0 0 3.34608 0 7.47368L0 26.1579C0 28.2217 1.76598 29.8947 3.94444 29.8947C6.1229 29.8947 7.88889 28.2217 7.88889 26.1579L7.88889 7.47368L63.1111 7.47368L63.1111 26.1579Z" fill="#009329"/>
<path d="M38.2633 19.7544C37.8911 19.4082 37.4645 19.146 37.0099 18.9678C36.5482 18.7864 36.0423 18.6857 35.5118 18.6842L35.5 18.6842L35.4882 18.6842C34.4826 18.6871 33.478 19.0519 32.7109 19.7787L16.9331 34.7261C15.3927 36.1854 15.3927 38.5514 16.9331 40.0108C18.4735 41.4701 20.971 41.4701 22.5114 40.0108L31.5556 31.4426L31.5556 67.2632C31.5556 69.327 33.3215 71 35.5 71C37.6785 71 39.4444 69.327 39.4444 67.2632V31.4426L48.4886 40.0108C50.029 41.4701 52.5265 41.4701 54.0669 40.0108C55.6073 38.5514 55.6073 36.1854 54.0669 34.7261L38.292 19.7814L38.2633 19.7544Z" fill="#009329"/>
</svg>
