<svg width="43" height="35" viewBox="0 0 43 35" fill="none" xmlns="http://www.w3.org/2000/svg">
<path d="M41.925 2.75C41.28 2.25 40.42 2.25 39.775 2.75L30.315 10.25V5C30.315 2.25 28.38 0 26.015 0H4.3C1.935 0 0 2.25 0 5V30C0 32.75 1.935 35 4.3 35H25.8C28.165 35 30.1 32.75 30.1 30V24.75L39.56 32.25C39.99 32.5 40.42 32.75 40.85 32.75C41.28 32.75 41.495 32.75 41.925 32.5C42.57 32 43 31.25 43 30.25V5C43 4 42.57 3.25 41.925 2.75ZM25.8 30H4.3V5H25.8V15V20V30ZM38.7 25.25L30.1 18.5V16.25L38.7 9.5V25.25Z" fill="#009329"/>
</svg>
