<svg width="18" height="18" viewBox="0 0 18 18" fill="none" xmlns="http://www.w3.org/2000/svg">
<path fill-rule="evenodd" clip-rule="evenodd" d="M1.27147 13.3781L0 18L4.75123 16.7599C6.06526 17.4723 7.53765 17.8456 9.0339 17.8457H9.03777C13.9771 17.8457 17.9979 13.8438 18 8.92614C18.001 6.55912 17.0571 4.28872 15.3763 2.61464C13.6954 0.940562 11.4152 1.11523e-05 9.0376 0C4.09734 0 0.0772191 4.00105 0.0752424 8.91895C0.0733203 10.4842 0.485929 12.0223 1.27147 13.3781ZM5.24346 15.3056L4.97133 15.145L2.15199 15.8809L2.90463 13.1453L2.72729 12.8648C1.98127 11.6831 1.58648 10.3153 1.58856 8.91951C1.59019 4.83196 4.93166 1.50653 9.04056 1.50653C13.1546 1.50818 16.4883 4.82972 16.4867 8.92541C16.485 13.0133 13.1434 16.3391 9.03777 16.3391H9.03485C7.70084 16.3392 6.39133 15.9823 5.24346 15.3056Z" fill="#009329"/>
<path d="M6.79782 5.19032C6.63023 4.81908 6.45344 4.81164 6.29389 4.80531C6.16335 4.79975 6.01394 4.80009 5.86474 4.80009C5.63528 4.80605 5.41875 4.90717 5.26744 5.07901C5.06217 5.30211 4.48356 5.84139 4.48356 6.93821C4.48356 8.03504 5.28609 9.09503 5.39799 9.24404C5.50988 9.39304 6.94718 11.7155 9.22332 12.6091C11.115 13.3517 11.4999 13.204 11.9105 13.1668C12.3212 13.1297 13.2354 12.6278 13.422 12.1071C13.6087 11.5863 13.6087 11.1402 13.5527 11.0472C13.4967 10.9541 13.3473 10.8985 13.1234 10.7871C12.8994 10.6756 11.7985 10.1362 11.5932 10.0618C11.3879 9.98746 11.2386 9.95033 11.0893 10.1736C10.94 10.3968 10.5111 10.8985 10.3803 11.0472C10.2495 11.1958 10.119 11.2147 9.895 11.1032C9.67104 10.9918 8.94964 10.7563 8.09421 9.99679C7.4285 9.40592 6.97907 8.67618 6.84843 8.453C6.7178 8.22982 6.83443 8.10926 6.94675 7.99812C7.04731 7.89827 7.17072 7.73789 7.2827 7.60772C7.39468 7.47754 7.43177 7.38462 7.50645 7.23596C7.58114 7.0873 7.54375 6.95691 7.48776 6.84543C7.43177 6.73394 6.9969 5.63117 6.79782 5.19032Z" fill="#009329"/>
</svg>
