<svg width="23" height="23" viewBox="0 0 23 23" fill="none" xmlns="http://www.w3.org/2000/svg">
<ellipse cx="11.9036" cy="11.3989" rx="11.096" ry="11.1855" fill="#20B038"/>
<path fill-rule="evenodd" clip-rule="evenodd" d="M5.9273 14.9225L4.896 18.7016L8.74977 17.6877C9.8156 18.2702 11.0099 18.5754 12.2235 18.5755H12.2266C16.233 18.5755 19.4943 15.3033 19.496 11.2824C19.4968 9.34697 18.7312 7.49057 17.3679 6.12175C16.0045 4.75294 14.155 3.9839 12.2265 3.98389C8.21939 3.98389 4.95863 7.25535 4.95703 11.2765C4.95547 12.5563 5.29014 13.8139 5.9273 14.9225ZM9.14903 16.4986L8.9283 16.3672L6.6415 16.969L7.25198 14.7322L7.10813 14.5028C6.50303 13.5366 6.18281 12.4182 6.18449 11.2769C6.18582 7.93475 8.89612 5.2157 12.2289 5.2157C15.5658 5.21705 18.2699 7.93292 18.2686 11.2818C18.2672 14.6242 15.5568 17.3436 12.2266 17.3436H12.2243C11.1422 17.3437 10.0801 17.0518 9.14903 16.4986Z" fill="white"/>
<path d="M10.4098 8.22777C10.2738 7.92422 10.1305 7.91813 10.001 7.91296C9.89515 7.90841 9.77397 7.90869 9.65295 7.90869C9.46683 7.91357 9.2912 7.99624 9.16848 8.13675C9.00198 8.31917 8.53266 8.76011 8.53266 9.65693C8.53266 10.5538 9.1836 11.4205 9.27436 11.5423C9.36512 11.6641 10.5309 13.5631 12.3771 14.2937C13.9115 14.9009 14.2237 14.7801 14.5567 14.7498C14.8898 14.7194 15.6313 14.3091 15.7828 13.8833C15.9342 13.4575 15.9341 13.0927 15.8887 13.0166C15.8433 12.9405 15.7222 12.8951 15.5405 12.8039C15.3589 12.7128 14.4659 12.2717 14.2994 12.2109C14.1329 12.1502 14.0118 12.1198 13.8906 12.3023C13.7695 12.4848 13.4216 12.8951 13.3156 13.0166C13.2095 13.1381 13.1036 13.1536 12.9219 13.0625C12.7403 12.9713 12.1551 12.7788 11.4613 12.1578C10.9213 11.6747 10.5568 11.078 10.4508 10.8955C10.3449 10.713 10.4395 10.6144 10.5306 10.5236C10.6121 10.4419 10.7122 10.3108 10.8031 10.2044C10.8939 10.0979 10.924 10.0219 10.9846 9.90039C11.0451 9.77884 11.0148 9.67222 10.9694 9.58106C10.924 9.48991 10.5713 8.58822 10.4098 8.22777Z" fill="white"/>
</svg>
