<svg width="26" height="29" viewBox="0 0 26 29" fill="none" xmlns="http://www.w3.org/2000/svg">
<path d="M8.125 7.14952C7.29657 7.14952 6.625 7.82109 6.625 8.64952C6.625 9.47795 7.29657 10.1495 8.125 10.1495H17.875C18.7034 10.1495 19.375 9.47795 19.375 8.64952C19.375 7.82109 18.7034 7.14952 17.875 7.14952H8.125ZM8.125 14.0691C7.29657 14.0691 6.625 14.7407 6.625 15.5691C6.625 16.3976 7.29657 17.0691 8.125 17.0691H13C13.8284 17.0691 14.5 16.3976 14.5 15.5691C14.5 14.7407 13.8284 14.0691 13 14.0691H8.125ZM16.243 22.7163C15.6225 22.7192 15.0914 23.0986 14.8658 23.6374L13.0957 27.406C13.0657 27.4699 13.0386 27.4872 13.0331 27.4906C13.0234 27.4967 13.0124 27.5 13 27.5C12.9876 27.5 12.9766 27.4967 12.9669 27.4906C12.9614 27.4872 12.9343 27.4699 12.9043 27.406L11.1342 23.6374C10.9086 23.0986 10.3775 22.7192 9.75697 22.7163C6.12429 22.6995 4.73064 22.5219 3.75824 21.8302C3.21266 21.4421 2.73821 20.9391 2.36592 20.3459C1.99501 19.755 1.75668 18.9757 1.63013 17.6514C1.5016 16.3064 1.5 14.5683 1.5 12.1093C1.5 9.65039 1.5016 7.9123 1.63013 6.56729C1.75668 5.24295 1.99501 4.46367 2.36592 3.87271C2.73821 3.27958 3.21266 2.77656 3.75824 2.38848C4.2857 2.01329 4.98002 1.76879 6.1965 1.63705C7.4431 1.50205 9.05955 1.5 11.375 1.5H14.625C16.9405 1.5 18.5569 1.50205 19.8035 1.63705C21.02 1.76879 21.7143 2.01329 22.2418 2.38848L23.1056 1.17404L22.2418 2.38848C22.7873 2.77656 23.2618 3.27958 23.6341 3.87271C24.005 4.46367 24.2433 5.24295 24.3699 6.56729C24.4984 7.9123 24.5 9.65039 24.5 12.1093C24.5 14.5683 24.4984 16.3064 24.3699 17.6514C24.2433 18.9757 24.005 19.755 23.6341 20.3459C23.2618 20.9391 22.7873 21.4421 22.2418 21.8302C21.2694 22.5219 19.8757 22.6995 16.243 22.7163Z" stroke="#fff" stroke-width="3" stroke-linecap="round" stroke-linejoin="round"/>
</svg>
