<svg width="26" height="29" viewBox="0 0 26 29" fill="none" xmlns="http://www.w3.org/2000/svg">
<mask id="path-1-inside-1_114_968" fill="white">
<path d="M0 14.1097C0 11.6562 0 10.4295 0.509714 9.35119C1.01943 8.27288 1.97668 7.47454 3.89118 5.87785L5.74832 4.329C9.20877 1.443 10.939 0 13 0C15.061 0 16.7912 1.443 20.2517 4.329L22.1088 5.87785C24.0233 7.47454 24.9806 8.27288 25.4903 9.35119C26 10.4295 26 11.6562 26 14.1097V21.772C26 25.1793 26 26.883 24.9121 27.9415C23.8242 29 22.0733 29 18.5714 29H7.42857C3.92671 29 2.17578 29 1.08789 27.9415C0 26.883 0 25.1793 0 21.772V14.1097Z"/>
</mask>
<path d="M16.1429 29C16.1429 29.8284 16.8144 30.5 17.6429 30.5C18.4713 30.5 19.1429 29.8284 19.1429 29H16.1429ZM6.85714 29C6.85714 29.8284 7.52872 30.5 8.35714 30.5C9.18557 30.5 9.85714 29.8284 9.85714 29H6.85714ZM10.2143 19.658H15.7857V16.658H10.2143V19.658ZM16.1429 19.965V29H19.1429V19.965H16.1429ZM6.85714 19.965V29H9.85714V19.965H6.85714ZM15.7857 19.658C16.0219 19.658 16.1429 19.8339 16.1429 19.965H19.1429C19.1429 18.1002 17.6008 16.658 15.7857 16.658V19.658ZM10.2143 16.658C8.39916 16.658 6.85714 18.1002 6.85714 19.965H9.85714C9.85714 19.8339 9.97807 19.658 10.2143 19.658V16.658ZM5.74832 4.329L7.66978 6.63291V6.63291L5.74832 4.329ZM20.2517 4.329L18.3302 6.63291V6.63291L20.2517 4.329ZM22.1088 5.87785L24.0303 3.57394V3.57394L22.1088 5.87785ZM3.89118 5.87785L1.96973 3.57394L1.96973 3.57394L3.89118 5.87785ZM23 14.1097V21.772H29V14.1097H23ZM18.5714 26H7.42857V32H18.5714V26ZM3 21.772V14.1097H-3V21.772H3ZM5.81264 8.18176L7.66978 6.63291L3.82687 2.02509L1.96973 3.57394L5.81264 8.18176ZM18.3302 6.63291L20.1874 8.18176L24.0303 3.57394L22.1731 2.02509L18.3302 6.63291ZM7.66978 6.63291C9.45882 5.14086 10.5916 4.20319 11.5208 3.60605C12.378 3.0552 12.7583 3 13 3V-3C11.1807 -3 9.66537 -2.3337 8.27709 -1.44155C6.96083 -0.595688 5.49828 0.631141 3.82687 2.02509L7.66978 6.63291ZM22.1731 2.02509C20.5017 0.631141 19.0392 -0.595689 17.7229 -1.44155C16.3346 -2.3337 14.8193 -3 13 -3V3C13.2417 3 13.622 3.0552 14.4792 3.60605C15.4084 4.20319 16.5412 5.14086 18.3302 6.63291L22.1731 2.02509ZM7.42857 26C5.59506 26 4.51368 25.994 3.74212 25.893C3.04864 25.8023 3.07073 25.685 3.17998 25.7913L-1.0042 30.0916C0.192934 31.2564 1.63444 31.6684 2.96386 31.8423C4.2152 32.006 5.76022 32 7.42857 32V26ZM-3 21.772C-3 23.3886 -3.00672 24.911 -2.83578 26.1482C-2.65172 27.4802 -2.2128 28.9157 -1.0042 30.0916L3.17998 25.7913C3.30069 25.9088 3.19566 25.9631 3.10775 25.3269C3.00672 24.5958 3 23.5628 3 21.772H-3ZM23 21.772C23 23.5628 22.9933 24.5958 22.8922 25.3269C22.8043 25.9631 22.6993 25.9088 22.82 25.7913L27.0042 30.0916C28.2128 28.9157 28.6517 27.4802 28.8358 26.1482C29.0067 24.911 29 23.3886 29 21.772H23ZM18.5714 32C20.2398 32 21.7848 32.006 23.0361 31.8423C24.3656 31.6684 25.8071 31.2564 27.0042 30.0916L22.82 25.7913C22.9293 25.685 22.9514 25.8023 22.2579 25.893C21.4863 25.994 20.4049 26 18.5714 26V32ZM29 14.1097C29 11.9362 29.0671 9.89804 28.2025 8.06911L22.778 10.6333C22.9329 10.9609 23 11.3762 23 14.1097H29ZM20.1874 8.18176C22.3182 9.95884 22.6177 10.294 22.778 10.6333L28.2025 8.06911C27.3435 6.25179 25.7285 4.99024 24.0303 3.57394L20.1874 8.18176ZM3 14.1097C3 11.3762 3.06706 10.9609 3.22196 10.6333L-2.20253 8.06911C-3.06706 9.89804 -3 11.9362 -3 14.1097H3ZM1.96973 3.57394C0.271517 4.99024 -1.34348 6.25179 -2.20253 8.06911L3.22196 10.6333C3.38234 10.294 3.68184 9.95884 5.81264 8.18176L1.96973 3.57394Z" fill="#fff" mask="url(#path-1-inside-1_114_968)"/>
</svg>
