<svg width="30" height="30" viewBox="0 0 30 30" fill="none" xmlns="http://www.w3.org/2000/svg">
<path d="M3.06162 17.8923C2.35387 16.4786 2 15.7717 2 15C2 14.2283 2.35387 13.5214 3.06163 12.1077L4.86778 8.5L6.77656 4.95811C7.52453 3.57021 7.89851 2.87626 8.5 2.4904C9.10149 2.10453 9.82935 2.09163 11.2851 2.06583L15 2L18.7149 2.06583C20.1707 2.09163 20.8985 2.10453 21.5 2.4904C22.1015 2.87626 22.4755 3.57021 23.2234 4.95812L25.1322 8.5L26.9384 12.1077C27.6461 13.5214 28 14.2283 28 15C28 15.7717 27.6461 16.4786 26.9384 17.8923L25.1322 21.5L23.2234 25.0419C22.4755 26.4298 22.1015 27.1237 21.5 27.5096C20.8985 27.8955 20.1707 27.9084 18.7149 27.9342L15 28L11.2851 27.9342C9.82935 27.9084 9.10149 27.8955 8.5 27.5096C7.89851 27.1237 7.52453 26.4298 6.77657 25.0419L4.86778 21.5L3.06162 17.8923Z" stroke="#009329" stroke-width="3"/>
<path d="M19.0159 15C19.0159 17.4644 17.2179 19.4622 15 19.4622C12.7821 19.4622 10.9841 17.4644 10.9841 15C10.9841 12.5356 12.7821 10.5378 15 10.5378C17.2179 10.5378 19.0159 12.5356 19.0159 15Z" stroke="#009329" stroke-width="3"/>
</svg>
