<svg width="30" height="33" viewBox="0 0 30 33" fill="none" xmlns="http://www.w3.org/2000/svg">
<path d="M28 9.25C28 13.2541 25.261 16.5 21.8824 16.5C18.5037 16.5 15.7647 13.2541 15.7647 9.25C15.7647 5.24594 18.5037 2 21.8824 2C25.261 2 28 5.24594 28 9.25Z" stroke="#009329" stroke-width="3"/>
<path d="M18.8235 25.5625C18.8235 28.5655 16.7693 31 14.2353 31C11.7013 31 9.64706 28.5655 9.64706 25.5625C9.64706 22.5595 11.7013 20.125 14.2353 20.125C16.7693 20.125 18.8235 22.5595 18.8235 25.5625Z" stroke="#009329" stroke-width="3"/>
<path d="M9.64706 11.9688C9.64706 14.4713 7.93521 16.5 5.82353 16.5C3.71185 16.5 2 14.4713 2 11.9688C2 9.46621 3.71185 7.4375 5.82353 7.4375C7.93521 7.4375 9.64706 9.46621 9.64706 11.9688Z" stroke="#009329" stroke-width="3"/>
</svg>
