<svg width="26" height="29" viewBox="0 0 26 29" fill="none" xmlns="http://www.w3.org/2000/svg">
<path d="M17.875 20.25H8.125V23.25H17.875V20.25ZM9.75 1.5H16.25C18.586 1.5 20.2032 1.50255 21.4205 1.64858C22.6105 1.79135 23.1884 2.04968 23.5735 2.3933C23.934 2.71504 24.1899 3.16564 24.3383 4.15035C24.496 5.19737 24.5 6.60203 24.5 8.7V20.3C24.5 22.398 24.496 23.8026 24.3383 24.8496C24.1899 25.8344 23.934 26.285 23.5735 26.6067C23.1884 26.9503 22.6105 27.2087 21.4205 27.3514C20.2032 27.4975 18.586 27.5 16.25 27.5H9.75C7.41396 27.5 5.79676 27.4975 4.57947 27.3514C3.38945 27.2087 2.81163 26.9503 2.42654 26.6067C2.06596 26.285 1.81011 25.8344 1.66174 24.8496C1.50398 23.8026 1.5 22.398 1.5 20.3V8.7C1.5 6.60203 1.50398 5.19737 1.66174 4.15035C1.81011 3.16564 2.06596 2.71504 2.42654 2.3933C2.81163 2.04968 3.38945 1.79135 4.57947 1.64858C5.79676 1.50255 7.41396 1.5 9.75 1.5Z" stroke="#009329" stroke-width="3"/>
</svg>
